<mxfile host="app.diagrams.net" modified="2020-11-11T14:52:20.316Z" agent="5.0 (Windows NT 10.0; Win64; x64) AppleWebKit/537.36 (KHTML, like Gecko) Chrome/86.0.4240.183 Safari/537.36" etag="sOg9nNGCj9Q1CAQn1WJf" version="13.9.6" type="github">
  <diagram id="C5RBs43oDa-KdzZeNtuy" name="Page-1">
    <mxGraphModel dx="1422" dy="1963" grid="1" gridSize="10" guides="1" tooltips="1" connect="1" arrows="1" fold="1" page="1" pageScale="1" pageWidth="827" pageHeight="1169" math="0" shadow="0">
      <root>
        <mxCell id="WIyWlLk6GJQsqaUBKTNV-0" />
        <mxCell id="WIyWlLk6GJQsqaUBKTNV-1" parent="WIyWlLk6GJQsqaUBKTNV-0" />
        <mxCell id="zkfFHV4jXpPFQw0GAbJ--26" value="" style="endArrow=open;shadow=0;strokeWidth=1;rounded=1;endFill=1;edgeStyle=elbowEdgeStyle;elbow=vertical;sketch=0;strokeColor=none;" parent="WIyWlLk6GJQsqaUBKTNV-1" edge="1">
          <mxGeometry x="0.5" y="41" relative="1" as="geometry">
            <mxPoint x="450" y="204.18181818181813" as="sourcePoint" />
            <mxPoint x="450" y="210" as="targetPoint" />
            <mxPoint x="-40" y="32" as="offset" />
          </mxGeometry>
        </mxCell>
        <mxCell id="-UFmBf2hsX3LxZVQurKs-121" style="edgeStyle=orthogonalEdgeStyle;rounded=1;sketch=0;orthogonalLoop=1;jettySize=auto;html=1;entryX=1;entryY=0.5;entryDx=0;entryDy=0;startArrow=none;startFill=0;fillColor=#0A0A0A;fontSize=14;exitX=0.5;exitY=1;exitDx=0;exitDy=0;" parent="WIyWlLk6GJQsqaUBKTNV-1" source="-UFmBf2hsX3LxZVQurKs-106" target="-UFmBf2hsX3LxZVQurKs-113" edge="1">
          <mxGeometry relative="1" as="geometry">
            <mxPoint x="740" y="120" as="sourcePoint" />
          </mxGeometry>
        </mxCell>
        <mxCell id="-UFmBf2hsX3LxZVQurKs-122" style="edgeStyle=orthogonalEdgeStyle;rounded=1;sketch=0;orthogonalLoop=1;jettySize=auto;html=1;exitX=0.5;exitY=1;exitDx=0;exitDy=0;startArrow=none;startFill=0;fillColor=#0A0A0A;fontSize=14;entryX=1;entryY=0.5;entryDx=0;entryDy=0;" parent="WIyWlLk6GJQsqaUBKTNV-1" source="-UFmBf2hsX3LxZVQurKs-106" target="-UFmBf2hsX3LxZVQurKs-116" edge="1">
          <mxGeometry relative="1" as="geometry">
            <mxPoint x="660" y="419" as="targetPoint" />
          </mxGeometry>
        </mxCell>
        <mxCell id="-UFmBf2hsX3LxZVQurKs-125" style="edgeStyle=orthogonalEdgeStyle;rounded=1;sketch=0;orthogonalLoop=1;jettySize=auto;html=1;exitX=0.5;exitY=1;exitDx=0;exitDy=0;startArrow=none;startFill=0;fillColor=#0A0A0A;fontSize=14;" parent="WIyWlLk6GJQsqaUBKTNV-1" source="-UFmBf2hsX3LxZVQurKs-106" target="-UFmBf2hsX3LxZVQurKs-117" edge="1">
          <mxGeometry relative="1" as="geometry" />
        </mxCell>
        <mxCell id="-UFmBf2hsX3LxZVQurKs-130" style="edgeStyle=orthogonalEdgeStyle;rounded=1;sketch=0;orthogonalLoop=1;jettySize=auto;html=1;exitX=0.5;exitY=1;exitDx=0;exitDy=0;entryX=1;entryY=0.5;entryDx=0;entryDy=0;startArrow=none;startFill=0;fillColor=#0A0A0A;fontSize=14;" parent="WIyWlLk6GJQsqaUBKTNV-1" source="-UFmBf2hsX3LxZVQurKs-106" target="-UFmBf2hsX3LxZVQurKs-127" edge="1">
          <mxGeometry relative="1" as="geometry" />
        </mxCell>
        <mxCell id="-UFmBf2hsX3LxZVQurKs-131" style="edgeStyle=orthogonalEdgeStyle;rounded=1;sketch=0;orthogonalLoop=1;jettySize=auto;html=1;exitX=0.5;exitY=1;exitDx=0;exitDy=0;entryX=1;entryY=0.5;entryDx=0;entryDy=0;startArrow=none;startFill=0;fillColor=#0A0A0A;fontSize=14;" parent="WIyWlLk6GJQsqaUBKTNV-1" source="-UFmBf2hsX3LxZVQurKs-106" target="-UFmBf2hsX3LxZVQurKs-128" edge="1">
          <mxGeometry relative="1" as="geometry" />
        </mxCell>
        <mxCell id="-UFmBf2hsX3LxZVQurKs-132" style="edgeStyle=orthogonalEdgeStyle;rounded=1;sketch=0;orthogonalLoop=1;jettySize=auto;html=1;exitX=0.5;exitY=1;exitDx=0;exitDy=0;entryX=1;entryY=0.5;entryDx=0;entryDy=0;startArrow=none;startFill=0;fillColor=#0A0A0A;fontSize=14;" parent="WIyWlLk6GJQsqaUBKTNV-1" source="-UFmBf2hsX3LxZVQurKs-106" target="-UFmBf2hsX3LxZVQurKs-129" edge="1">
          <mxGeometry relative="1" as="geometry" />
        </mxCell>
        <mxCell id="-UFmBf2hsX3LxZVQurKs-148" value="Передача" style="edgeLabel;html=1;align=center;verticalAlign=middle;resizable=0;points=[];fontSize=14;" parent="-UFmBf2hsX3LxZVQurKs-132" vertex="1" connectable="0">
          <mxGeometry x="-0.9032" y="2" relative="1" as="geometry">
            <mxPoint x="-2" y="65" as="offset" />
          </mxGeometry>
        </mxCell>
        <mxCell id="-UFmBf2hsX3LxZVQurKs-137" style="edgeStyle=orthogonalEdgeStyle;rounded=1;sketch=0;orthogonalLoop=1;jettySize=auto;html=1;exitX=0.25;exitY=1;exitDx=0;exitDy=0;entryX=1;entryY=0.5;entryDx=0;entryDy=0;startArrow=none;startFill=0;fillColor=#0A0A0A;fontSize=14;" parent="WIyWlLk6GJQsqaUBKTNV-1" source="-UFmBf2hsX3LxZVQurKs-106" target="-UFmBf2hsX3LxZVQurKs-134" edge="1">
          <mxGeometry relative="1" as="geometry" />
        </mxCell>
        <mxCell id="-UFmBf2hsX3LxZVQurKs-138" style="edgeStyle=orthogonalEdgeStyle;rounded=1;sketch=0;orthogonalLoop=1;jettySize=auto;html=1;exitX=0.25;exitY=1;exitDx=0;exitDy=0;entryX=1;entryY=0.5;entryDx=0;entryDy=0;startArrow=none;startFill=0;fillColor=#0A0A0A;fontSize=14;" parent="WIyWlLk6GJQsqaUBKTNV-1" source="-UFmBf2hsX3LxZVQurKs-106" target="-UFmBf2hsX3LxZVQurKs-135" edge="1">
          <mxGeometry relative="1" as="geometry" />
        </mxCell>
        <mxCell id="-UFmBf2hsX3LxZVQurKs-141" style="edgeStyle=orthogonalEdgeStyle;rounded=1;sketch=0;orthogonalLoop=1;jettySize=auto;html=1;exitX=0.25;exitY=1;exitDx=0;exitDy=0;startArrow=none;startFill=0;fillColor=#0A0A0A;fontSize=14;" parent="WIyWlLk6GJQsqaUBKTNV-1" source="-UFmBf2hsX3LxZVQurKs-106" target="-UFmBf2hsX3LxZVQurKs-140" edge="1">
          <mxGeometry relative="1" as="geometry" />
        </mxCell>
        <mxCell id="-UFmBf2hsX3LxZVQurKs-198" style="edgeStyle=orthogonalEdgeStyle;rounded=1;sketch=0;orthogonalLoop=1;jettySize=auto;html=1;exitX=0.25;exitY=1;exitDx=0;exitDy=0;entryX=1;entryY=0.5;entryDx=0;entryDy=0;startArrow=none;startFill=0;fillColor=#0A0A0A;fontSize=14;" parent="WIyWlLk6GJQsqaUBKTNV-1" source="-UFmBf2hsX3LxZVQurKs-106" target="-UFmBf2hsX3LxZVQurKs-174" edge="1">
          <mxGeometry relative="1" as="geometry" />
        </mxCell>
        <mxCell id="-UFmBf2hsX3LxZVQurKs-199" style="edgeStyle=orthogonalEdgeStyle;rounded=1;sketch=0;orthogonalLoop=1;jettySize=auto;html=1;exitX=0.5;exitY=1;exitDx=0;exitDy=0;entryX=1;entryY=0.5;entryDx=0;entryDy=0;startArrow=none;startFill=0;fillColor=#0A0A0A;fontSize=14;" parent="WIyWlLk6GJQsqaUBKTNV-1" source="-UFmBf2hsX3LxZVQurKs-106" target="-UFmBf2hsX3LxZVQurKs-175" edge="1">
          <mxGeometry relative="1" as="geometry" />
        </mxCell>
        <mxCell id="-UFmBf2hsX3LxZVQurKs-200" style="edgeStyle=orthogonalEdgeStyle;rounded=1;sketch=0;orthogonalLoop=1;jettySize=auto;html=1;exitX=0.5;exitY=1;exitDx=0;exitDy=0;entryX=1;entryY=0.5;entryDx=0;entryDy=0;startArrow=none;startFill=0;fillColor=#0A0A0A;fontSize=14;" parent="WIyWlLk6GJQsqaUBKTNV-1" source="-UFmBf2hsX3LxZVQurKs-106" target="-UFmBf2hsX3LxZVQurKs-176" edge="1">
          <mxGeometry relative="1" as="geometry" />
        </mxCell>
        <mxCell id="-UFmBf2hsX3LxZVQurKs-202" style="edgeStyle=orthogonalEdgeStyle;rounded=1;sketch=0;orthogonalLoop=1;jettySize=auto;html=1;exitX=0.25;exitY=1;exitDx=0;exitDy=0;entryX=1;entryY=0.5;entryDx=0;entryDy=0;startArrow=none;startFill=0;fillColor=#0A0A0A;fontSize=14;" parent="WIyWlLk6GJQsqaUBKTNV-1" source="-UFmBf2hsX3LxZVQurKs-106" target="-UFmBf2hsX3LxZVQurKs-182" edge="1">
          <mxGeometry relative="1" as="geometry" />
        </mxCell>
        <mxCell id="-UFmBf2hsX3LxZVQurKs-204" style="edgeStyle=orthogonalEdgeStyle;rounded=1;sketch=0;orthogonalLoop=1;jettySize=auto;html=1;exitX=0.25;exitY=1;exitDx=0;exitDy=0;entryX=1;entryY=0.5;entryDx=0;entryDy=0;startArrow=none;startFill=0;fillColor=#0A0A0A;fontSize=14;" parent="WIyWlLk6GJQsqaUBKTNV-1" source="-UFmBf2hsX3LxZVQurKs-106" target="-UFmBf2hsX3LxZVQurKs-183" edge="1">
          <mxGeometry relative="1" as="geometry" />
        </mxCell>
        <mxCell id="-UFmBf2hsX3LxZVQurKs-205" style="edgeStyle=orthogonalEdgeStyle;rounded=1;sketch=0;orthogonalLoop=1;jettySize=auto;html=1;exitX=0.25;exitY=1;exitDx=0;exitDy=0;entryX=1;entryY=0.5;entryDx=0;entryDy=0;startArrow=none;startFill=0;fillColor=#0A0A0A;fontSize=14;" parent="WIyWlLk6GJQsqaUBKTNV-1" source="-UFmBf2hsX3LxZVQurKs-106" target="-UFmBf2hsX3LxZVQurKs-184" edge="1">
          <mxGeometry relative="1" as="geometry" />
        </mxCell>
        <mxCell id="JvQ7oeNxbVgpKxmAzjBA-6" style="edgeStyle=orthogonalEdgeStyle;rounded=0;orthogonalLoop=1;jettySize=auto;html=1;exitX=0.25;exitY=1;exitDx=0;exitDy=0;entryX=0;entryY=0.5;entryDx=0;entryDy=0;" edge="1" parent="WIyWlLk6GJQsqaUBKTNV-1" source="-UFmBf2hsX3LxZVQurKs-106" target="-UFmBf2hsX3LxZVQurKs-170">
          <mxGeometry relative="1" as="geometry" />
        </mxCell>
        <mxCell id="-UFmBf2hsX3LxZVQurKs-106" value="1С: Университет ПРОФ" style="swimlane;fontStyle=0;childLayout=stackLayout;horizontal=1;startSize=26;fillColor=none;horizontalStack=0;resizeParent=1;resizeParentMax=0;resizeLast=0;collapsible=1;marginBottom=0;rounded=0;shadow=0;glass=0;sketch=0;fontSize=14;align=left;html=1;" parent="WIyWlLk6GJQsqaUBKTNV-1" vertex="1">
          <mxGeometry x="750" y="-100" width="380" height="52" as="geometry" />
        </mxCell>
        <mxCell id="-UFmBf2hsX3LxZVQurKs-110" value="1С:ДГУ" style="swimlane;fontStyle=0;childLayout=stackLayout;horizontal=1;startSize=26;fillColor=none;horizontalStack=0;resizeParent=1;resizeParentMax=0;resizeLast=0;collapsible=1;marginBottom=0;rounded=0;shadow=0;glass=0;sketch=0;fontSize=14;align=left;html=1;" parent="WIyWlLk6GJQsqaUBKTNV-1" vertex="1">
          <mxGeometry x="260" y="100" width="290" height="150" as="geometry" />
        </mxCell>
        <mxCell id="-UFmBf2hsX3LxZVQurKs-111" value="Приказы (подписание согласовани)&#xa;" style="text;strokeColor=none;fillColor=none;align=left;verticalAlign=top;spacingLeft=4;spacingRight=4;overflow=hidden;rotatable=0;points=[[0,0.5],[1,0.5]];portConstraint=eastwest;whiteSpace=wrap;labelBorderColor=none;" parent="-UFmBf2hsX3LxZVQurKs-110" vertex="1">
          <mxGeometry y="26" width="290" height="24" as="geometry" />
        </mxCell>
        <mxCell id="-UFmBf2hsX3LxZVQurKs-112" value="Графики&#xa;" style="text;strokeColor=none;fillColor=none;align=left;verticalAlign=top;spacingLeft=4;spacingRight=4;overflow=hidden;rotatable=0;points=[[0,0.5],[1,0.5]];portConstraint=eastwest;" parent="-UFmBf2hsX3LxZVQurKs-110" vertex="1">
          <mxGeometry y="50" width="290" height="20" as="geometry" />
        </mxCell>
        <mxCell id="-UFmBf2hsX3LxZVQurKs-113" value="Выставление задач для МФЦ(для создания приказов)" style="text;strokeColor=none;fillColor=none;align=left;verticalAlign=top;spacingLeft=4;spacingRight=4;overflow=hidden;rotatable=0;points=[[0,0.5],[1,0.5]];portConstraint=eastwest;whiteSpace=wrap;" parent="-UFmBf2hsX3LxZVQurKs-110" vertex="1">
          <mxGeometry y="70" width="290" height="40" as="geometry" />
        </mxCell>
        <mxCell id="-UFmBf2hsX3LxZVQurKs-140" value="Подписание ЭЦП (Ректор) пакета документа по Образовательной программе " style="text;strokeColor=none;fillColor=none;align=left;verticalAlign=top;spacingLeft=4;spacingRight=4;overflow=hidden;rotatable=0;points=[[0,0.5],[1,0.5]];portConstraint=eastwest;whiteSpace=wrap;" parent="-UFmBf2hsX3LxZVQurKs-110" vertex="1">
          <mxGeometry y="110" width="290" height="40" as="geometry" />
        </mxCell>
        <mxCell id="-UFmBf2hsX3LxZVQurKs-114" value="1С:АСР" style="swimlane;fontStyle=0;childLayout=stackLayout;horizontal=1;startSize=26;fillColor=none;horizontalStack=0;resizeParent=1;resizeParentMax=0;resizeLast=0;collapsible=1;marginBottom=0;rounded=0;shadow=0;glass=0;sketch=0;fontSize=14;align=left;html=1;" parent="WIyWlLk6GJQsqaUBKTNV-1" vertex="1">
          <mxGeometry x="260" y="310" width="290" height="200" as="geometry" />
        </mxCell>
        <mxCell id="-UFmBf2hsX3LxZVQurKs-116" value="Справочники (Группы студентов &#xa;Преподаватели&#xa;ДисциплиныПомещения)" style="text;strokeColor=none;fillColor=none;align=left;verticalAlign=top;spacingLeft=4;spacingRight=4;overflow=hidden;rotatable=0;points=[[0,0.5],[1,0.5]];portConstraint=eastwest;" parent="-UFmBf2hsX3LxZVQurKs-114" vertex="1">
          <mxGeometry y="26" width="290" height="54" as="geometry" />
        </mxCell>
        <mxCell id="-UFmBf2hsX3LxZVQurKs-117" value="Обработка &quot;Занятия&quot;" style="text;strokeColor=none;fillColor=none;align=left;verticalAlign=top;spacingLeft=4;spacingRight=4;overflow=hidden;rotatable=0;points=[[0,0.5],[1,0.5]];portConstraint=eastwest;" parent="-UFmBf2hsX3LxZVQurKs-114" vertex="1">
          <mxGeometry y="80" width="290" height="60" as="geometry" />
        </mxCell>
        <mxCell id="-UFmBf2hsX3LxZVQurKs-123" value="Передача документа расписание" style="text;strokeColor=none;fillColor=none;align=left;verticalAlign=top;spacingLeft=4;spacingRight=4;overflow=hidden;rotatable=0;points=[[0,0.5],[1,0.5]];portConstraint=eastwest;" parent="-UFmBf2hsX3LxZVQurKs-114" vertex="1">
          <mxGeometry y="140" width="290" height="60" as="geometry" />
        </mxCell>
        <mxCell id="-UFmBf2hsX3LxZVQurKs-119" style="edgeStyle=orthogonalEdgeStyle;rounded=1;sketch=0;orthogonalLoop=1;jettySize=auto;html=1;fillColor=#0A0A0A;fontSize=14;startArrow=classic;startFill=1;entryX=0.25;entryY=1;entryDx=0;entryDy=0;" parent="WIyWlLk6GJQsqaUBKTNV-1" source="-UFmBf2hsX3LxZVQurKs-111" target="-UFmBf2hsX3LxZVQurKs-106" edge="1">
          <mxGeometry relative="1" as="geometry">
            <mxPoint x="760" y="50" as="targetPoint" />
          </mxGeometry>
        </mxCell>
        <mxCell id="-UFmBf2hsX3LxZVQurKs-120" style="edgeStyle=orthogonalEdgeStyle;rounded=1;sketch=0;orthogonalLoop=1;jettySize=auto;html=1;startArrow=classic;startFill=1;fillColor=#0A0A0A;fontSize=14;entryX=0.25;entryY=1;entryDx=0;entryDy=0;" parent="WIyWlLk6GJQsqaUBKTNV-1" source="-UFmBf2hsX3LxZVQurKs-112" target="-UFmBf2hsX3LxZVQurKs-106" edge="1">
          <mxGeometry relative="1" as="geometry">
            <mxPoint x="760" y="50" as="targetPoint" />
          </mxGeometry>
        </mxCell>
        <mxCell id="-UFmBf2hsX3LxZVQurKs-146" value="Двухсторонний обмен &lt;br&gt;данными" style="edgeLabel;html=1;align=center;verticalAlign=middle;resizable=0;points=[];fontSize=14;" parent="-UFmBf2hsX3LxZVQurKs-120" vertex="1" connectable="0">
          <mxGeometry x="0.7181" y="1" relative="1" as="geometry">
            <mxPoint as="offset" />
          </mxGeometry>
        </mxCell>
        <mxCell id="-UFmBf2hsX3LxZVQurKs-124" style="edgeStyle=orthogonalEdgeStyle;rounded=1;sketch=0;orthogonalLoop=1;jettySize=auto;html=1;entryX=0.75;entryY=1;entryDx=0;entryDy=0;startArrow=none;startFill=0;fillColor=#0A0A0A;fontSize=14;" parent="WIyWlLk6GJQsqaUBKTNV-1" source="-UFmBf2hsX3LxZVQurKs-123" target="-UFmBf2hsX3LxZVQurKs-106" edge="1">
          <mxGeometry relative="1" as="geometry" />
        </mxCell>
        <mxCell id="-UFmBf2hsX3LxZVQurKs-126" value="1С: БИТ Общежитие" style="swimlane;fontStyle=0;childLayout=stackLayout;horizontal=1;startSize=26;fillColor=none;horizontalStack=0;resizeParent=1;resizeParentMax=0;resizeLast=0;collapsible=1;marginBottom=0;rounded=0;shadow=0;glass=0;sketch=0;fontSize=14;align=left;html=1;" parent="WIyWlLk6GJQsqaUBKTNV-1" vertex="1">
          <mxGeometry x="260" y="560" width="290" height="104" as="geometry" />
        </mxCell>
        <mxCell id="-UFmBf2hsX3LxZVQurKs-127" value="Физ.Лицо (3 варианта)" style="text;strokeColor=none;fillColor=none;align=left;verticalAlign=top;spacingLeft=4;spacingRight=4;overflow=hidden;rotatable=0;points=[[0,0.5],[1,0.5]];portConstraint=eastwest;" parent="-UFmBf2hsX3LxZVQurKs-126" vertex="1">
          <mxGeometry y="26" width="290" height="26" as="geometry" />
        </mxCell>
        <mxCell id="-UFmBf2hsX3LxZVQurKs-128" value="Создание документа &quot;Планируемый заезд&#xa;&quot;" style="text;strokeColor=none;fillColor=none;align=left;verticalAlign=top;spacingLeft=4;spacingRight=4;overflow=hidden;rotatable=0;points=[[0,0.5],[1,0.5]];portConstraint=eastwest;" parent="-UFmBf2hsX3LxZVQurKs-126" vertex="1">
          <mxGeometry y="52" width="290" height="26" as="geometry" />
        </mxCell>
        <mxCell id="-UFmBf2hsX3LxZVQurKs-129" value="Обновление персональных данных по событию&#xa;" style="text;strokeColor=none;fillColor=none;align=left;verticalAlign=top;spacingLeft=4;spacingRight=4;overflow=hidden;rotatable=0;points=[[0,0.5],[1,0.5]];portConstraint=eastwest;" parent="-UFmBf2hsX3LxZVQurKs-126" vertex="1">
          <mxGeometry y="78" width="290" height="26" as="geometry" />
        </mxCell>
        <mxCell id="-UFmBf2hsX3LxZVQurKs-133" value="1С: БИТ БГУ" style="swimlane;fontStyle=0;childLayout=stackLayout;horizontal=1;startSize=26;fillColor=none;horizontalStack=0;resizeParent=1;resizeParentMax=0;resizeLast=0;collapsible=1;marginBottom=0;rounded=0;shadow=0;glass=0;sketch=0;fontSize=14;align=left;html=1;" parent="WIyWlLk6GJQsqaUBKTNV-1" vertex="1">
          <mxGeometry x="259" y="720" width="291" height="120" as="geometry" />
        </mxCell>
        <mxCell id="-UFmBf2hsX3LxZVQurKs-134" value="Физ.Лицо (2 варианта)" style="text;strokeColor=none;fillColor=none;align=left;verticalAlign=top;spacingLeft=4;spacingRight=4;overflow=hidden;rotatable=0;points=[[0,0.5],[1,0.5]];portConstraint=eastwest;" parent="-UFmBf2hsX3LxZVQurKs-133" vertex="1">
          <mxGeometry y="26" width="291" height="26" as="geometry" />
        </mxCell>
        <mxCell id="-UFmBf2hsX3LxZVQurKs-135" value="Договор +Доп. соглашения (из Заявка на договор)" style="text;strokeColor=none;fillColor=none;align=left;verticalAlign=top;spacingLeft=4;spacingRight=4;overflow=hidden;rotatable=0;points=[[0,0.5],[1,0.5]];portConstraint=eastwest;" parent="-UFmBf2hsX3LxZVQurKs-133" vertex="1">
          <mxGeometry y="52" width="291" height="26" as="geometry" />
        </mxCell>
        <mxCell id="-UFmBf2hsX3LxZVQurKs-136" value="Договор по абитуриенту + Документ &quot;Оплата по договору&quot;" style="text;strokeColor=none;fillColor=none;align=left;verticalAlign=top;spacingLeft=4;spacingRight=4;overflow=hidden;rotatable=0;points=[[0,0.5],[1,0.5]];portConstraint=eastwest;whiteSpace=wrap;" parent="-UFmBf2hsX3LxZVQurKs-133" vertex="1">
          <mxGeometry y="78" width="291" height="42" as="geometry" />
        </mxCell>
        <mxCell id="-UFmBf2hsX3LxZVQurKs-139" style="edgeStyle=orthogonalEdgeStyle;rounded=1;sketch=0;orthogonalLoop=1;jettySize=auto;html=1;exitX=1;exitY=0.5;exitDx=0;exitDy=0;entryX=0.75;entryY=1;entryDx=0;entryDy=0;startArrow=none;startFill=0;fillColor=#0A0A0A;fontSize=14;" parent="WIyWlLk6GJQsqaUBKTNV-1" source="-UFmBf2hsX3LxZVQurKs-136" target="-UFmBf2hsX3LxZVQurKs-106" edge="1">
          <mxGeometry relative="1" as="geometry" />
        </mxCell>
        <mxCell id="-UFmBf2hsX3LxZVQurKs-147" value="Прием" style="edgeLabel;html=1;align=center;verticalAlign=middle;resizable=0;points=[];fontSize=14;" parent="-UFmBf2hsX3LxZVQurKs-139" vertex="1" connectable="0">
          <mxGeometry x="0.9334" y="3" relative="1" as="geometry">
            <mxPoint as="offset" />
          </mxGeometry>
        </mxCell>
        <mxCell id="-UFmBf2hsX3LxZVQurKs-157" value="1С: &quot;Стипендия&quot;" style="swimlane;fontStyle=0;childLayout=stackLayout;horizontal=1;startSize=26;fillColor=none;horizontalStack=0;resizeParent=1;resizeParentMax=0;resizeLast=0;collapsible=1;marginBottom=0;rounded=0;shadow=0;glass=0;sketch=0;fontSize=14;align=left;html=1;" parent="WIyWlLk6GJQsqaUBKTNV-1" vertex="1">
          <mxGeometry x="1200" y="100" width="290" height="104" as="geometry" />
        </mxCell>
        <mxCell id="-UFmBf2hsX3LxZVQurKs-158" value="+ field: type" style="text;strokeColor=none;fillColor=none;align=left;verticalAlign=top;spacingLeft=4;spacingRight=4;overflow=hidden;rotatable=0;points=[[0,0.5],[1,0.5]];portConstraint=eastwest;" parent="-UFmBf2hsX3LxZVQurKs-157" vertex="1">
          <mxGeometry y="26" width="290" height="26" as="geometry" />
        </mxCell>
        <mxCell id="-UFmBf2hsX3LxZVQurKs-159" value="+ field: type" style="text;strokeColor=none;fillColor=none;align=left;verticalAlign=top;spacingLeft=4;spacingRight=4;overflow=hidden;rotatable=0;points=[[0,0.5],[1,0.5]];portConstraint=eastwest;" parent="-UFmBf2hsX3LxZVQurKs-157" vertex="1">
          <mxGeometry y="52" width="290" height="26" as="geometry" />
        </mxCell>
        <mxCell id="-UFmBf2hsX3LxZVQurKs-160" value="+ field: type" style="text;strokeColor=none;fillColor=none;align=left;verticalAlign=top;spacingLeft=4;spacingRight=4;overflow=hidden;rotatable=0;points=[[0,0.5],[1,0.5]];portConstraint=eastwest;" parent="-UFmBf2hsX3LxZVQurKs-157" vertex="1">
          <mxGeometry y="78" width="290" height="26" as="geometry" />
        </mxCell>
        <mxCell id="-UFmBf2hsX3LxZVQurKs-161" value="1С: Университет ПРОФ Узел" style="swimlane;fontStyle=0;childLayout=stackLayout;horizontal=1;startSize=26;fillColor=none;horizontalStack=0;resizeParent=1;resizeParentMax=0;resizeLast=0;collapsible=1;marginBottom=0;rounded=0;shadow=0;glass=0;sketch=0;fontSize=14;align=left;html=1;" parent="WIyWlLk6GJQsqaUBKTNV-1" vertex="1">
          <mxGeometry x="1200" y="240" width="290" height="104" as="geometry" />
        </mxCell>
        <mxCell id="-UFmBf2hsX3LxZVQurKs-162" value="+ field: type" style="text;strokeColor=none;fillColor=none;align=left;verticalAlign=top;spacingLeft=4;spacingRight=4;overflow=hidden;rotatable=0;points=[[0,0.5],[1,0.5]];portConstraint=eastwest;" parent="-UFmBf2hsX3LxZVQurKs-161" vertex="1">
          <mxGeometry y="26" width="290" height="26" as="geometry" />
        </mxCell>
        <mxCell id="-UFmBf2hsX3LxZVQurKs-163" value="+ field: type" style="text;strokeColor=none;fillColor=none;align=left;verticalAlign=top;spacingLeft=4;spacingRight=4;overflow=hidden;rotatable=0;points=[[0,0.5],[1,0.5]];portConstraint=eastwest;" parent="-UFmBf2hsX3LxZVQurKs-161" vertex="1">
          <mxGeometry y="52" width="290" height="26" as="geometry" />
        </mxCell>
        <mxCell id="-UFmBf2hsX3LxZVQurKs-164" value="+ field: type" style="text;strokeColor=none;fillColor=none;align=left;verticalAlign=top;spacingLeft=4;spacingRight=4;overflow=hidden;rotatable=0;points=[[0,0.5],[1,0.5]];portConstraint=eastwest;" parent="-UFmBf2hsX3LxZVQurKs-161" vertex="1">
          <mxGeometry y="78" width="290" height="26" as="geometry" />
        </mxCell>
        <mxCell id="-UFmBf2hsX3LxZVQurKs-165" value="Сервер персональных данных (СПД)" style="swimlane;fontStyle=0;childLayout=stackLayout;horizontal=1;startSize=26;fillColor=#fa6800;horizontalStack=0;resizeParent=1;resizeParentMax=0;resizeLast=0;collapsible=1;marginBottom=0;rounded=0;shadow=0;glass=0;sketch=0;fontSize=14;align=left;html=1;strokeColor=#C73500;fontColor=#ffffff;" parent="WIyWlLk6GJQsqaUBKTNV-1" vertex="1">
          <mxGeometry x="1200" y="670" width="290" height="90" as="geometry" />
        </mxCell>
        <mxCell id="-UFmBf2hsX3LxZVQurKs-166" value="Физлицо + необходимые данные профиля" style="text;strokeColor=none;fillColor=none;align=left;verticalAlign=top;spacingLeft=4;spacingRight=4;overflow=hidden;rotatable=0;points=[[0,0.5],[1,0.5]];portConstraint=eastwest;" parent="-UFmBf2hsX3LxZVQurKs-165" vertex="1">
          <mxGeometry y="26" width="290" height="26" as="geometry" />
        </mxCell>
        <mxCell id="-UFmBf2hsX3LxZVQurKs-167" value="Формирование и передача в 1С и в СА учетных данных для авторизации " style="text;strokeColor=none;fillColor=none;align=left;verticalAlign=top;spacingLeft=4;spacingRight=4;overflow=hidden;rotatable=0;points=[[0,0.5],[1,0.5]];portConstraint=eastwest;whiteSpace=wrap;" parent="-UFmBf2hsX3LxZVQurKs-165" vertex="1">
          <mxGeometry y="52" width="290" height="38" as="geometry" />
        </mxCell>
        <mxCell id="-UFmBf2hsX3LxZVQurKs-169" value="Сервер авторизации (СА)" style="swimlane;fontStyle=0;childLayout=stackLayout;horizontal=1;startSize=26;fillColor=#dae8fc;horizontalStack=0;resizeParent=1;resizeParentMax=0;resizeLast=0;collapsible=1;marginBottom=0;rounded=0;shadow=0;glass=0;sketch=0;fontSize=14;align=left;html=1;strokeColor=#6c8ebf;strokeWidth=1;gradientColor=#7ea6e0;" parent="WIyWlLk6GJQsqaUBKTNV-1" vertex="1">
          <mxGeometry x="1200" y="520" width="290" height="104" as="geometry" />
        </mxCell>
        <mxCell id="-UFmBf2hsX3LxZVQurKs-170" value="GUID" style="text;strokeColor=none;fillColor=none;align=left;verticalAlign=top;spacingLeft=4;spacingRight=4;overflow=hidden;rotatable=0;points=[[0,0.5],[1,0.5]];portConstraint=eastwest;" parent="-UFmBf2hsX3LxZVQurKs-169" vertex="1">
          <mxGeometry y="26" width="290" height="26" as="geometry" />
        </mxCell>
        <mxCell id="-UFmBf2hsX3LxZVQurKs-171" value="состояние&#xa;" style="text;strokeColor=none;fillColor=none;align=left;verticalAlign=top;spacingLeft=4;spacingRight=4;overflow=hidden;rotatable=0;points=[[0,0.5],[1,0.5]];portConstraint=eastwest;" parent="-UFmBf2hsX3LxZVQurKs-169" vertex="1">
          <mxGeometry y="52" width="290" height="26" as="geometry" />
        </mxCell>
        <mxCell id="-UFmBf2hsX3LxZVQurKs-172" value="тип" style="text;strokeColor=none;fillColor=none;align=left;verticalAlign=top;spacingLeft=4;spacingRight=4;overflow=hidden;rotatable=0;points=[[0,0.5],[1,0.5]];portConstraint=eastwest;" parent="-UFmBf2hsX3LxZVQurKs-169" vertex="1">
          <mxGeometry y="78" width="290" height="26" as="geometry" />
        </mxCell>
        <mxCell id="-UFmBf2hsX3LxZVQurKs-173" value="Moodle(exam.tsutmb.ru) Дистанционное обучение" style="swimlane;fontStyle=0;childLayout=stackLayout;horizontal=1;startSize=26;fillColor=none;horizontalStack=0;resizeParent=1;resizeParentMax=0;resizeLast=0;collapsible=1;marginBottom=0;rounded=0;shadow=0;glass=0;sketch=0;fontSize=14;align=left;html=1;" parent="WIyWlLk6GJQsqaUBKTNV-1" vertex="1">
          <mxGeometry x="259" y="880" width="330" height="104" as="geometry" />
        </mxCell>
        <mxCell id="-UFmBf2hsX3LxZVQurKs-174" value="Создание учетных записей абитуриентов" style="text;strokeColor=none;fillColor=none;align=left;verticalAlign=top;spacingLeft=4;spacingRight=4;overflow=hidden;rotatable=0;points=[[0,0.5],[1,0.5]];portConstraint=eastwest;" parent="-UFmBf2hsX3LxZVQurKs-173" vertex="1">
          <mxGeometry y="26" width="330" height="26" as="geometry" />
        </mxCell>
        <mxCell id="-UFmBf2hsX3LxZVQurKs-175" value="Запись на курсы" style="text;strokeColor=none;fillColor=none;align=left;verticalAlign=top;spacingLeft=4;spacingRight=4;overflow=hidden;rotatable=0;points=[[0,0.5],[1,0.5]];portConstraint=eastwest;" parent="-UFmBf2hsX3LxZVQurKs-173" vertex="1">
          <mxGeometry y="52" width="330" height="26" as="geometry" />
        </mxCell>
        <mxCell id="-UFmBf2hsX3LxZVQurKs-176" value="Выгрузка результатов тестирования в ведомости&#xa;" style="text;strokeColor=none;fillColor=none;align=left;verticalAlign=top;spacingLeft=4;spacingRight=4;overflow=hidden;rotatable=0;points=[[0,0.5],[1,0.5]];portConstraint=eastwest;" parent="-UFmBf2hsX3LxZVQurKs-173" vertex="1">
          <mxGeometry y="78" width="330" height="26" as="geometry" />
        </mxCell>
        <mxCell id="-UFmBf2hsX3LxZVQurKs-181" value="Moodle(moodle.tsutmb.ru)" style="swimlane;fontStyle=0;childLayout=stackLayout;horizontal=1;startSize=26;fillColor=none;horizontalStack=0;resizeParent=1;resizeParentMax=0;resizeLast=0;collapsible=1;marginBottom=0;rounded=0;shadow=0;glass=0;sketch=0;fontSize=14;align=left;html=1;" parent="WIyWlLk6GJQsqaUBKTNV-1" vertex="1">
          <mxGeometry x="259" y="1020" width="290" height="156" as="geometry" />
        </mxCell>
        <mxCell id="-UFmBf2hsX3LxZVQurKs-182" value="Создание учетных записей абитуриентов" style="text;strokeColor=none;fillColor=none;align=left;verticalAlign=top;spacingLeft=4;spacingRight=4;overflow=hidden;rotatable=0;points=[[0,0.5],[1,0.5]];portConstraint=eastwest;" parent="-UFmBf2hsX3LxZVQurKs-181" vertex="1">
          <mxGeometry y="26" width="290" height="26" as="geometry" />
        </mxCell>
        <mxCell id="-UFmBf2hsX3LxZVQurKs-183" value="Запись на курсы" style="text;strokeColor=none;fillColor=none;align=left;verticalAlign=top;spacingLeft=4;spacingRight=4;overflow=hidden;rotatable=0;points=[[0,0.5],[1,0.5]];portConstraint=eastwest;" parent="-UFmBf2hsX3LxZVQurKs-181" vertex="1">
          <mxGeometry y="52" width="290" height="26" as="geometry" />
        </mxCell>
        <mxCell id="-UFmBf2hsX3LxZVQurKs-184" value="Синхронизация курсов" style="text;strokeColor=none;fillColor=none;align=left;verticalAlign=top;spacingLeft=4;spacingRight=4;overflow=hidden;rotatable=0;points=[[0,0.5],[1,0.5]];portConstraint=eastwest;" parent="-UFmBf2hsX3LxZVQurKs-181" vertex="1">
          <mxGeometry y="78" width="290" height="26" as="geometry" />
        </mxCell>
        <mxCell id="-UFmBf2hsX3LxZVQurKs-206" value="Списание с курсов&#xa;" style="text;strokeColor=none;fillColor=none;align=left;verticalAlign=top;spacingLeft=4;spacingRight=4;overflow=hidden;rotatable=0;points=[[0,0.5],[1,0.5]];portConstraint=eastwest;" parent="-UFmBf2hsX3LxZVQurKs-181" vertex="1">
          <mxGeometry y="104" width="290" height="26" as="geometry" />
        </mxCell>
        <mxCell id="-UFmBf2hsX3LxZVQurKs-207" value="Запись ИПС на курсы" style="text;strokeColor=none;fillColor=none;align=left;verticalAlign=top;spacingLeft=4;spacingRight=4;overflow=hidden;rotatable=0;points=[[0,0.5],[1,0.5]];portConstraint=eastwest;" parent="-UFmBf2hsX3LxZVQurKs-181" vertex="1">
          <mxGeometry y="130" width="290" height="26" as="geometry" />
        </mxCell>
        <mxCell id="-UFmBf2hsX3LxZVQurKs-185" value="Личный кабинет (lk.tsutmb.ru), новая версия" style="swimlane;fontStyle=0;childLayout=stackLayout;horizontal=1;startSize=26;fillColor=none;horizontalStack=0;resizeParent=1;resizeParentMax=0;resizeLast=0;collapsible=1;marginBottom=0;rounded=0;shadow=0;glass=0;sketch=0;fontSize=14;align=left;html=1;" parent="WIyWlLk6GJQsqaUBKTNV-1" vertex="1">
          <mxGeometry x="1270" y="1020" width="290" height="104" as="geometry" />
        </mxCell>
        <mxCell id="-UFmBf2hsX3LxZVQurKs-186" value="+ field: type" style="text;strokeColor=none;fillColor=none;align=left;verticalAlign=top;spacingLeft=4;spacingRight=4;overflow=hidden;rotatable=0;points=[[0,0.5],[1,0.5]];portConstraint=eastwest;" parent="-UFmBf2hsX3LxZVQurKs-185" vertex="1">
          <mxGeometry y="26" width="290" height="26" as="geometry" />
        </mxCell>
        <mxCell id="-UFmBf2hsX3LxZVQurKs-187" value="+ field: type" style="text;strokeColor=none;fillColor=none;align=left;verticalAlign=top;spacingLeft=4;spacingRight=4;overflow=hidden;rotatable=0;points=[[0,0.5],[1,0.5]];portConstraint=eastwest;" parent="-UFmBf2hsX3LxZVQurKs-185" vertex="1">
          <mxGeometry y="52" width="290" height="26" as="geometry" />
        </mxCell>
        <mxCell id="-UFmBf2hsX3LxZVQurKs-188" value="+ field: type" style="text;strokeColor=none;fillColor=none;align=left;verticalAlign=top;spacingLeft=4;spacingRight=4;overflow=hidden;rotatable=0;points=[[0,0.5],[1,0.5]];portConstraint=eastwest;" parent="-UFmBf2hsX3LxZVQurKs-185" vertex="1">
          <mxGeometry y="78" width="290" height="26" as="geometry" />
        </mxCell>
        <mxCell id="-UFmBf2hsX3LxZVQurKs-189" value="Личный кабинет (lk1C.tsutmb.ru)" style="swimlane;fontStyle=0;childLayout=stackLayout;horizontal=1;startSize=26;fillColor=none;horizontalStack=0;resizeParent=1;resizeParentMax=0;resizeLast=0;collapsible=1;marginBottom=0;rounded=0;shadow=0;glass=0;sketch=0;fontSize=14;align=left;html=1;" parent="WIyWlLk6GJQsqaUBKTNV-1" vertex="1">
          <mxGeometry x="1590" y="1020" width="290" height="104" as="geometry" />
        </mxCell>
        <mxCell id="-UFmBf2hsX3LxZVQurKs-190" value="+ field: type" style="text;strokeColor=none;fillColor=none;align=left;verticalAlign=top;spacingLeft=4;spacingRight=4;overflow=hidden;rotatable=0;points=[[0,0.5],[1,0.5]];portConstraint=eastwest;" parent="-UFmBf2hsX3LxZVQurKs-189" vertex="1">
          <mxGeometry y="26" width="290" height="26" as="geometry" />
        </mxCell>
        <mxCell id="-UFmBf2hsX3LxZVQurKs-191" value="+ field: type" style="text;strokeColor=none;fillColor=none;align=left;verticalAlign=top;spacingLeft=4;spacingRight=4;overflow=hidden;rotatable=0;points=[[0,0.5],[1,0.5]];portConstraint=eastwest;" parent="-UFmBf2hsX3LxZVQurKs-189" vertex="1">
          <mxGeometry y="52" width="290" height="26" as="geometry" />
        </mxCell>
        <mxCell id="-UFmBf2hsX3LxZVQurKs-192" value="+ field: type" style="text;strokeColor=none;fillColor=none;align=left;verticalAlign=top;spacingLeft=4;spacingRight=4;overflow=hidden;rotatable=0;points=[[0,0.5],[1,0.5]];portConstraint=eastwest;" parent="-UFmBf2hsX3LxZVQurKs-189" vertex="1">
          <mxGeometry y="78" width="290" height="26" as="geometry" />
        </mxCell>
        <mxCell id="-UFmBf2hsX3LxZVQurKs-193" value="Руслан" style="swimlane;fontStyle=0;childLayout=stackLayout;horizontal=1;startSize=26;fillColor=none;horizontalStack=0;resizeParent=1;resizeParentMax=0;resizeLast=0;collapsible=1;marginBottom=0;rounded=0;shadow=0;glass=0;sketch=0;fontSize=14;align=left;html=1;" parent="WIyWlLk6GJQsqaUBKTNV-1" vertex="1">
          <mxGeometry x="260" y="1390" width="290" height="78" as="geometry" />
        </mxCell>
        <mxCell id="-UFmBf2hsX3LxZVQurKs-194" value="Физ. лицо&#xa;" style="text;strokeColor=none;fillColor=none;align=left;verticalAlign=top;spacingLeft=4;spacingRight=4;overflow=hidden;rotatable=0;points=[[0,0.5],[1,0.5]];portConstraint=eastwest;" parent="-UFmBf2hsX3LxZVQurKs-193" vertex="1">
          <mxGeometry y="26" width="290" height="26" as="geometry" />
        </mxCell>
        <mxCell id="-UFmBf2hsX3LxZVQurKs-195" value="Взятая литератур" style="text;strokeColor=none;fillColor=none;align=left;verticalAlign=top;spacingLeft=4;spacingRight=4;overflow=hidden;rotatable=0;points=[[0,0.5],[1,0.5]];portConstraint=eastwest;" parent="-UFmBf2hsX3LxZVQurKs-193" vertex="1">
          <mxGeometry y="52" width="290" height="26" as="geometry" />
        </mxCell>
        <mxCell id="JvQ7oeNxbVgpKxmAzjBA-0" value="Moodle(sdo.tsutmb.ru)&lt;br&gt;" style="swimlane;fontStyle=0;childLayout=stackLayout;horizontal=1;startSize=26;fillColor=none;horizontalStack=0;resizeParent=1;resizeParentMax=0;resizeLast=0;collapsible=1;marginBottom=0;rounded=0;shadow=0;glass=0;sketch=0;fontSize=14;align=left;html=1;" vertex="1" parent="WIyWlLk6GJQsqaUBKTNV-1">
          <mxGeometry x="259" y="1200" width="290" height="156" as="geometry" />
        </mxCell>
        <mxCell id="JvQ7oeNxbVgpKxmAzjBA-1" value="Создание учетных записей абитуриентов" style="text;strokeColor=none;fillColor=none;align=left;verticalAlign=top;spacingLeft=4;spacingRight=4;overflow=hidden;rotatable=0;points=[[0,0.5],[1,0.5]];portConstraint=eastwest;" vertex="1" parent="JvQ7oeNxbVgpKxmAzjBA-0">
          <mxGeometry y="26" width="290" height="26" as="geometry" />
        </mxCell>
        <mxCell id="JvQ7oeNxbVgpKxmAzjBA-2" value="Запись на курсы" style="text;strokeColor=none;fillColor=none;align=left;verticalAlign=top;spacingLeft=4;spacingRight=4;overflow=hidden;rotatable=0;points=[[0,0.5],[1,0.5]];portConstraint=eastwest;" vertex="1" parent="JvQ7oeNxbVgpKxmAzjBA-0">
          <mxGeometry y="52" width="290" height="26" as="geometry" />
        </mxCell>
        <mxCell id="JvQ7oeNxbVgpKxmAzjBA-3" value="Синхронизация курсов" style="text;strokeColor=none;fillColor=none;align=left;verticalAlign=top;spacingLeft=4;spacingRight=4;overflow=hidden;rotatable=0;points=[[0,0.5],[1,0.5]];portConstraint=eastwest;" vertex="1" parent="JvQ7oeNxbVgpKxmAzjBA-0">
          <mxGeometry y="78" width="290" height="26" as="geometry" />
        </mxCell>
        <mxCell id="JvQ7oeNxbVgpKxmAzjBA-4" value="Списание с курсов&#xa;" style="text;strokeColor=none;fillColor=none;align=left;verticalAlign=top;spacingLeft=4;spacingRight=4;overflow=hidden;rotatable=0;points=[[0,0.5],[1,0.5]];portConstraint=eastwest;" vertex="1" parent="JvQ7oeNxbVgpKxmAzjBA-0">
          <mxGeometry y="104" width="290" height="26" as="geometry" />
        </mxCell>
        <mxCell id="JvQ7oeNxbVgpKxmAzjBA-5" value="Запись ИПС на курсы" style="text;strokeColor=none;fillColor=none;align=left;verticalAlign=top;spacingLeft=4;spacingRight=4;overflow=hidden;rotatable=0;points=[[0,0.5],[1,0.5]];portConstraint=eastwest;" vertex="1" parent="JvQ7oeNxbVgpKxmAzjBA-0">
          <mxGeometry y="130" width="290" height="26" as="geometry" />
        </mxCell>
      </root>
    </mxGraphModel>
  </diagram>
</mxfile>
